<?xml version="1.0" encoding="UTF-8"?>
<svg id="Calque_1" data-name="Calque 1" xmlns="http://www.w3.org/2000/svg" viewBox="0 0 1834.5 260.64">
  <path d="M1506.95,118.37c-12.27-5.52-26.98-9.52-60.41-16.56-15.94-3.69-22.08-5.83-28.82-10.12-6.75-4.9-10.42-11.65-10.42-19.93,0-17.49,15.94-29.13,39.86-29.13,14.72,0,27.33,4.36,34.39,12.62,5.25,6.32,6.54,11.07,7.12,18.56l54.59-8.37c-1.06-2.88-3.69-9.92-4.99-13.7-2.78-7.69-6.1-13.49-10.78-19.85-15.94-20.85-43.54-31.89-80.03-31.89-56.73,0-92.61,28.52-92.61,73.59,0,22.7,9.21,41.4,26.37,54.28,11.66,8.28,21.77,12.26,47.84,18.39,33.43,7.67,42.93,10.73,52.44,16.87,7.97,4.9,11.96,12.57,11.96,22.08,0,19.62-16.87,31.88-43.54,31.88-18.09,0-32.5-5.82-40.78-16.56-2.49-3.08-4.23-6.03-5.46-9.62-1.47-4.58-2.13-11.52-1.45-15.46l-55.04,8.45c.16.59,1.87,7.04,2.72,11.19h.01c3.12,14.91,7.46,24.16,15.36,33.96,16.25,20.54,45.99,31.57,85.55,31.57,61.33,0,96.29-28.52,96.29-78.49,0-14.72-3.07-26.98-9.21-37.1-7.04-11.65-18.39-21.15-30.97-26.67Z"/>
  <path d="M610.41,37.72c-6.75-17.48-8.59-23.92-10.43-31.89h-69.12c.14,2.68-.37,8.92-1,12.56-.68,3.97-2.72,11.01-4.17,15.23-.46,1.31-68.31,184.7-68.31,184.7-6.44,17.48-10.73,27.6-15.64,36.8h63.38c-.51-3.02-.45-7.25.03-10.93.44-3.35,1.55-8.43,3.06-13.24,0-.02,0-.03,0-.05l24.39-75.03,14.44,37h66.71l10.43,29.74c1.77,5.4,3.96,12.85,5.13,18.92.57,3.76,1.48,10.15.74,13.59h62.82c-3.68-7.67-9.2-21.16-15.02-36.8l-67.46-180.61ZM534.66,149.64l28.23-86.78c2.15-6.13,2.45-7.67,4.29-14.1,2.45,8.28,3.68,11.35,4.6,14.1l29.13,86.78h-66.25Z"/>
  <path d="M1272.83,37.72c-6.75-17.48-8.59-23.92-10.43-31.89h-69.12c.14,2.68-.37,8.92-1,12.56-.68,3.97-2.72,11.01-4.17,15.23-.46,1.31-68.31,184.7-68.31,184.7-6.44,17.48-10.73,27.6-15.64,36.8h63.38c-.51-3.02-.45-7.25.03-10.93.44-3.35,1.55-8.43,3.06-13.24,0-.02,0-.03,0-.05l24.39-75.03,14.44,37h66.71l10.43,29.74c1.77,5.4,3.96,12.85,5.13,18.92.57,3.76,1.48,10.15.74,13.59h62.82c-3.68-7.67-9.2-21.16-15.02-36.8l-67.46-180.61ZM1197.07,149.64l28.23-86.78c2.15-6.13,2.45-7.67,4.29-14.1,2.45,8.28,3.68,11.35,4.6,14.1l29.13,86.78h-66.25Z"/>
  <path d="M1068.28,212.19V50.9s37.44,0,43.24.03c5.45.02,20.13.83,26.6,1.49,5.97.61,10.28,1.78,13.25,2.68V3.68c-12.57,1.53-24.84,2.15-46.3,2.15h-127.56c-17.78,0-31.28-.61-43.54-2.15v51.42c2.97-.91,7.29-2.08,13.25-2.68,6.48-.66,21.15-1.46,26.6-1.49,5.8-.03,42.94-.03,42.94-.03v161.29c-.08,10.23.06,15.02-.89,25.49-.42,3.76-1.73,13.99-3.38,17.43h58.24s1.83,0,1.83,0c-1.65-3.44-2.96-13.67-3.38-17.43-.97-10.8-.81-15.17-.9-25.5Z"/>
  <path d="M1830.16,208.82V52.44c.11-12.65-.12-16.74.96-29.19.42-3.76,1.73-13.99,3.38-17.43h-69.96c-1.83,11.66-5.21,23.92-11.34,39.57l-54.28,142.89-54.58-142.89c-5.82-15.33-9.51-28.21-11.34-39.56h-69.96c1.65,3.43,2.96,13.66,3.38,17.42,1.07,12.24.85,17.22.96,29.19v156.38c-.08,11.41.06,18.36-.93,28.87-.42,3.76-1.73,14-3.38,17.44h54.9c-1.66-3.44-2.97-13.68-3.39-17.44-1.05-12.01-.79-16.66-.9-28.87v-89.22c0-7.67-.62-19.94-2.45-49.68,6.44,23,10.77,37.1,14.44,46.61l37.41,95.36c7.35,18.4,11.65,32.81,13.18,43.24h44.73c1.53-9.81,7.05-26.99,13.19-42.93l38.63-96.59c4.34-10.71,11.61-37.47,13.5-45.69-1.84,29.13-2.46,41.4-2.46,48.75v90.15c-.09,12,.09,17.79-.92,28.88-.42,3.76-1.73,13.99-3.38,17.43h54.88c-1.65-3.44-2.96-13.67-3.38-17.43-1.08-12.38-.78-16.2-.9-28.88Z"/>
  <path d="M427.94,212.81V47.84c.08-9.83-.11-14.38.84-24.58.42-3.76,1.73-13.99,3.38-17.43h-59.04c1.65,3.44,2.96,13.67,3.38,17.43.95,10.26.77,14.78.85,24.89v54.89h-113.76v-55.19c.09-10.25-.1-13.62.88-24.58.42-3.76,1.73-13.99,3.38-17.43h-58.78c1.65,3.44,2.96,13.67,3.38,17.43.95,10.42.77,14.53.85,24.89v164.66c-.09,10.74.14,13.71-.85,24.88-.42,3.76-1.73,13.99-3.38,17.43h58.77c-1.65-3.44-2.96-13.67-3.38-17.43-.97-10.88-.78-14.38-.87-24.88v-64.7h113.76v64.7c-.07,10.2.09,14.83-.85,24.88-.42,3.76-1.73,13.99-3.38,17.43h59.07c-1.65-3.44-3.03-13.66-3.38-17.43-.98-10.44-.87-15.86-.87-24.88Z"/>
  <path d="M924.73,5.83h-58.24c1.65,3.44,2.96,13.67,3.38,17.43.99,10.97.82,15.61.9,26.73v92.91c0,11.35.92,27.6,1.84,38.33-6.44-12.27-13.8-24.53-20.85-34.96l-70.53-105.18c-11.04-16.25-17.17-27.29-19.93-35.26h-58.97c1.22,3.11,2.87,11.56,3.39,15.31.4,2.89.88,8.28.88,11.59v175.17c-.1,12.06.25,18.26-.8,29.78-.42,3.76-1.73,13.99-3.38,17.43h58.28c-1.65-3.43-2.96-13.66-3.38-17.43-1.04-11.55-.83-17.56-.93-29.48v-89.54c.07-10.27-1.4-31.63-2.15-38.64,8.28,15.95,13.49,25.14,19.62,34.34l70.53,104.87c9.81,15.03,17.17,27.6,20.85,35.88h59.45c-1.65-3.44-2.96-13.67-3.38-17.43-.38-3.38-.67-9.77-.68-9.73-.14-4.74-.19-177.67-.19-177.67,0-6.58.29-20.44.9-27.03.42-4.56,1.73-13.99,3.38-17.43Z"/>
  <path d="M109.13,5.83H43.81c-18.09,0-28.21-.31-42.01-.92,1.84,14.72,2.45,26.37,2.45,42.01v165.89c-.09,10.25.1,13.89-.88,24.88-.42,3.76-1.73,13.99-3.38,17.43h58.82c-1.65-3.44-2.96-13.67-3.38-17.43-.99-11.01-.8-15.18-.89-25.5v-45.38h53.66c29.74,0,52.43-7.67,68.07-23.61,14.41-14.41,21.77-34.65,21.77-59.18,0-23-7.05-42.32-19.93-55.19-15.33-15.33-38.02-23-68.99-23ZM106.98,123.58h-52.43V49.06h52.43c13.8,0,23.3,3.07,29.74,10.12,6.13,6.13,9.2,15.33,9.2,26.37,0,24.22-14.11,38.02-38.94,38.02Z"/>
</svg>